<svg width="24" height="24" viewBox="0 0 24 24" fill="none" xmlns="http://www.w3.org/2000/svg">
<path d="M6.08938 14.9992C5.71097 14.1486 5.5 13.2023 5.5 12.2051C5.5 8.50154 8.41015 5.49921 12 5.49921C15.5899 5.49921 18.5 8.50154 18.5 12.2051C18.5 13.2023 18.289 14.1486 17.9106 14.9992" stroke="white" stroke-opacity="0.8" stroke-width="1.5" stroke-linecap="round"/>
<path d="M12 1.99921V2.99921" stroke="white" stroke-opacity="0.8" stroke-width="1.5" stroke-linecap="round" stroke-linejoin="round"/>
<path d="M22 11.9992H21" stroke="white" stroke-opacity="0.8" stroke-width="1.5" stroke-linecap="round" stroke-linejoin="round"/>
<path d="M3 11.9992H2" stroke="white" stroke-opacity="0.8" stroke-width="1.5" stroke-linecap="round" stroke-linejoin="round"/>
<path d="M19.0704 4.92792L18.3633 5.63503" stroke="white" stroke-opacity="0.8" stroke-width="1.5" stroke-linecap="round" stroke-linejoin="round"/>
<path d="M5.6368 5.636L4.92969 4.92889" stroke="white" stroke-opacity="0.8" stroke-width="1.5" stroke-linecap="round" stroke-linejoin="round"/>
<path d="M14.5155 19.3056C15.5259 18.9788 15.9311 18.054 16.0451 17.1238C16.0791 16.8459 15.8505 16.6154 15.5705 16.6154L8.47539 16.6156C8.18579 16.6156 7.95321 16.8614 7.98779 17.1489C8.09944 18.0773 8.38124 18.7555 9.45199 19.3056M14.5155 19.3056C14.5155 19.3056 9.62825 19.3056 9.45199 19.3056M14.5155 19.3056C14.394 21.2506 13.8323 22.0209 12.0053 21.9993C10.0511 22.0354 9.60157 21.0833 9.45199 19.3056" stroke="white" stroke-opacity="0.8" stroke-width="1.5" stroke-linecap="round" stroke-linejoin="round"/>
</svg>
