<svg width="28" height="28" viewBox="0 0 28 28" fill="none" xmlns="http://www.w3.org/2000/svg">
<path d="M8.16669 11.083C9.13319 11.083 9.91669 10.2995 9.91669 9.33301C9.91669 8.36651 9.13319 7.58301 8.16669 7.58301C7.20019 7.58301 6.41669 8.36651 6.41669 9.33301C6.41669 10.2995 7.20019 11.083 8.16669 11.083Z" stroke="white" stroke-width="1.5" stroke-linecap="round" stroke-linejoin="round"/>
<path d="M24.4973 12.8333C24.5 13.3818 24.5 13.9642 24.5 14.5833C24.5 19.808 24.5 22.4204 22.8769 24.0436C21.2537 25.6667 18.6413 25.6667 13.4166 25.6667C8.19192 25.6667 5.57955 25.6667 3.95643 24.0436C2.33331 22.4204 2.33331 19.808 2.33331 14.5833C2.33331 9.3586 2.33331 6.74624 3.95643 5.12311C5.57955 3.5 8.19192 3.5 13.4166 3.5C14.0358 3.5 14.6182 3.5 15.1666 3.5027" stroke="white" stroke-width="1.5" stroke-linecap="round"/>
<path d="M21.5833 2.33301L21.8842 3.14621C22.2788 4.21253 22.4761 4.7457 22.865 5.13463C23.254 5.52357 23.7872 5.72086 24.8535 6.11543L25.6667 6.41634L24.8535 6.71725C23.7872 7.11183 23.254 7.30912 22.865 7.69805C22.4761 8.08698 22.2788 8.62015 21.8842 9.68647L21.5833 10.4997L21.2824 9.68647C20.8879 8.62015 20.6906 8.08698 20.3016 7.69805C19.9127 7.30912 19.3795 7.11183 18.3132 6.71725L17.5 6.41634L18.3132 6.11543C19.3795 5.72086 19.9127 5.52357 20.3016 5.13463C20.6906 4.7457 20.8879 4.21253 21.2824 3.14621L21.5833 2.33301Z" stroke="white" stroke-width="1.5" stroke-linejoin="round"/>
<path d="M5.25 25.0829C10.3512 18.9871 16.0698 10.9477 24.4971 16.3824" stroke="white" stroke-width="1.5"/>
</svg>
