<svg width="20" height="20" viewBox="0 0 20 20" fill="none" xmlns="http://www.w3.org/2000/svg">
<g clip-path="url(#clip0_4787_1831)">
<path d="M16.6667 7.5H9.16667C8.24619 7.5 7.5 8.24619 7.5 9.16667V16.6667C7.5 17.5871 8.24619 18.3333 9.16667 18.3333H16.6667C17.5871 18.3333 18.3333 17.5871 18.3333 16.6667V9.16667C18.3333 8.24619 17.5871 7.5 16.6667 7.5Z" stroke="#FD7A10" stroke-width="1.5" stroke-linecap="round" stroke-linejoin="round"/>
<path d="M4.16797 12.5H3.33464C2.89261 12.5 2.46868 12.3244 2.15612 12.0118C1.84356 11.6993 1.66797 11.2754 1.66797 10.8333V3.33332C1.66797 2.8913 1.84356 2.46737 2.15612 2.15481C2.46868 1.84225 2.89261 1.66666 3.33464 1.66666H10.8346C11.2767 1.66666 11.7006 1.84225 12.0131 2.15481C12.3257 2.46737 12.5013 2.8913 12.5013 3.33332V4.16666" stroke="#FD7A10" stroke-width="1.5" stroke-linecap="round" stroke-linejoin="round"/>
</g>
<defs>
<clipPath id="clip0_4787_1831">
<rect width="20" height="20" fill="white"/>
</clipPath>
</defs>
</svg>
