<svg width="28" height="28" viewBox="0 0 28 28" fill="none" xmlns="http://www.w3.org/2000/svg">
<path d="M12.25 10.2083V7.875C12.25 5.9573 12.25 4.99845 11.7203 4.35308C11.6234 4.23494 11.5151 4.1266 11.3969 4.02964C10.7515 3.5 9.7927 3.5 7.875 3.5C5.9573 3.5 4.99845 3.5 4.35308 4.02964C4.23494 4.1266 4.1266 4.23494 4.02964 4.35308C3.5 4.99845 3.5 5.9573 3.5 7.875V10.2083C3.5 12.126 3.5 13.0849 4.02964 13.7303C4.1266 13.8484 4.23494 13.9567 4.35308 14.0537C4.99845 14.5833 5.9573 14.5833 7.875 14.5833C9.7927 14.5833 10.7515 14.5833 11.3969 14.0537C11.5151 13.9567 11.6234 13.8484 11.7203 13.7303C12.25 13.0849 12.25 12.126 12.25 10.2083Z" stroke="white" stroke-width="1.5" stroke-linejoin="round"/>
<path d="M9.04167 18.083H6.70833C5.89426 18.083 5.48722 18.083 5.156 18.1835C4.41027 18.4097 3.82669 18.9932 3.60047 19.739C3.5 20.0702 3.5 20.4772 3.5 21.2913C3.5 22.1054 3.5 22.5125 3.60047 22.8437C3.82669 23.5894 4.41027 24.173 5.156 24.3992C5.48722 24.4997 5.89426 24.4997 6.70833 24.4997H9.04167C9.85574 24.4997 10.2628 24.4997 10.594 24.3992C11.3397 24.173 11.9233 23.5894 12.1496 22.8437C12.25 22.5125 12.25 22.1054 12.25 21.2913C12.25 20.4772 12.25 20.0702 12.1496 19.739C11.9233 18.9932 11.3397 18.4097 10.594 18.1835C10.2628 18.083 9.85574 18.083 9.04167 18.083Z" stroke="white" stroke-width="1.5" stroke-linejoin="round"/>
<path d="M24.5 20.1253V17.792C24.5 15.8743 24.5 14.9155 23.9703 14.2701C23.8734 14.1519 23.7651 14.0436 23.6469 13.9467C23.0015 13.417 22.0426 13.417 20.125 13.417C18.2073 13.417 17.2485 13.417 16.6031 13.9467C16.4849 14.0436 16.3766 14.1519 16.2797 14.2701C15.75 14.9155 15.75 15.8743 15.75 17.792V20.1253C15.75 22.043 15.75 23.0019 16.2797 23.6473C16.3766 23.7654 16.4849 23.8737 16.6031 23.9707C17.2485 24.5003 18.2073 24.5003 20.125 24.5003C22.0426 24.5003 23.0015 24.5003 23.6469 23.9707C23.7651 23.8737 23.8734 23.7654 23.9703 23.6473C24.5 23.0019 24.5 22.043 24.5 20.1253Z" stroke="white" stroke-width="1.5" stroke-linejoin="round"/>
<path d="M21.2917 3.5H18.9583C18.1442 3.5 17.7372 3.5 17.406 3.60047C16.6602 3.82669 16.0767 4.41027 15.8504 5.156C15.75 5.48722 15.75 5.89426 15.75 6.70833C15.75 7.52241 15.75 7.92945 15.8504 8.26067C16.0767 9.0064 16.6602 9.58998 17.406 9.81619C17.7372 9.91667 18.1442 9.91667 18.9583 9.91667H21.2917C22.1058 9.91667 22.5128 9.91667 22.844 9.81619C23.5898 9.58998 24.1733 9.0064 24.3996 8.26067C24.5 7.92945 24.5 7.52241 24.5 6.70833C24.5 5.89426 24.5 5.48722 24.3996 5.156C24.1733 4.41027 23.5898 3.82669 22.844 3.60047C22.5128 3.5 22.1058 3.5 21.2917 3.5Z" stroke="white" stroke-width="1.5" stroke-linejoin="round"/>
</svg>
