<svg width="124" height="138" viewBox="0 0 124 138" fill="none" xmlns="http://www.w3.org/2000/svg">
<g filter="url(#filter0_d_5192_1580)">
<path d="M104 76.0876C104 99.2352 85.196 118 62 118C38.804 118 20 99.2352 20 76.0876C20 62.2783 26.6924 50.0288 37.0172 42.3928C46.9003 34.1504 50.9875 31.3614 51.3015 23.5435C51.3878 21.3926 53.424 19.743 55.3946 20.6096C72.0467 27.9328 75.9198 42.6 77.931 45.1844C80.1034 47.976 81.9138 38.644 86.9828 42.3928C97.3076 50.0288 104 62.2783 104 76.0876Z" fill="url(#paint0_linear_5192_1580)"/>
</g>
<defs>
<filter id="filter0_d_5192_1580" x="0" y="0.374207" width="124" height="137.626" filterUnits="userSpaceOnUse" color-interpolation-filters="sRGB">
<feFlood flood-opacity="0" result="BackgroundImageFix"/>
<feColorMatrix in="SourceAlpha" type="matrix" values="0 0 0 0 0 0 0 0 0 0 0 0 0 0 0 0 0 0 127 0" result="hardAlpha"/>
<feOffset/>
<feGaussianBlur stdDeviation="10"/>
<feComposite in2="hardAlpha" operator="out"/>
<feColorMatrix type="matrix" values="0 0 0 0 1 0 0 0 0 0.741176 0 0 0 0 0.141176 0 0 0 0.5 0"/>
<feBlend mode="normal" in2="BackgroundImageFix" result="effect1_dropShadow_5192_1580"/>
<feBlend mode="normal" in="SourceGraphic" in2="effect1_dropShadow_5192_1580" result="shape"/>
</filter>
<linearGradient id="paint0_linear_5192_1580" x1="30.7917" y1="32.86" x2="67.1888" y2="86.8146" gradientUnits="userSpaceOnUse">
<stop stop-color="#FFC89B"/>
<stop offset="1" stop-color="#FD7A10"/>
</linearGradient>
</defs>
</svg>
