<svg width="28" height="28" viewBox="0 0 28 28" fill="none" xmlns="http://www.w3.org/2000/svg">
<path d="M25.6666 12.2503L15.0296 3.29274C14.7414 3.05007 14.3767 2.91699 14 2.91699C13.6233 2.91699 13.2586 3.05007 12.9704 3.29274L2.33331 12.2503" stroke="white" stroke-width="1.5" stroke-linecap="round" stroke-linejoin="round"/>
<path d="M23.9166 11.083V18.6663C23.9166 21.4029 23.9166 22.7711 23.1934 23.7137C23.0072 23.9564 22.79 24.1736 22.5473 24.3598C21.6048 25.083 20.2365 25.083 17.5 25.083V19.833C17.5 18.1831 17.5 17.3582 16.9875 16.8455C16.4748 16.333 15.6499 16.333 14 16.333C12.3501 16.333 11.5251 16.333 11.0125 16.8455C10.5 17.3582 10.5 18.1831 10.5 19.833V25.083C7.76347 25.083 6.39523 25.083 5.45265 24.3598C5.20999 24.1736 4.99278 23.9564 4.80658 23.7137C4.08331 22.7711 4.08331 21.4029 4.08331 18.6663V11.083" stroke="white" stroke-width="1.5" stroke-linecap="round" stroke-linejoin="round"/>
<path d="M23.9154 11.0833V18.6666C23.9154 21.4031 23.9154 22.7714 23.1921 23.7139C23.0059 23.9566 22.7887 24.1738 22.546 24.36C21.6035 25.0833 20.2352 25.0833 17.4987 25.0833V19.8333C17.4987 18.1834 17.4987 17.3584 16.9862 16.8458C16.4735 16.3333 15.6486 16.3333 13.9987 16.3333C12.3488 16.3333 11.5238 16.3333 11.0113 16.8458C10.4987 17.3584 10.4987 18.1834 10.4987 19.8333V25.0833C7.76219 25.0833 6.39394 25.0833 5.45137 24.36C5.2087 24.1738 4.99149 23.9566 4.80529 23.7139C4.08203 22.7714 4.08203 21.4031 4.08203 18.6666V11.0833" stroke="white" stroke-width="1.5" stroke-linecap="round" stroke-linejoin="round"/>
<path d="M4 22V11L14 2.5L24 11V22C24 23.6569 22.6569 25 21 25H17.5V18.5C17.5 17.3954 16.6046 16.5 15.5 16.5H12.5C11.3954 16.5 10.5 17.3954 10.5 18.5V25H7C5.34315 25 4 23.6569 4 22Z" fill="white"/>
</svg>
