<svg width="18" height="18" viewBox="0 0 18 18" fill="none" xmlns="http://www.w3.org/2000/svg">
<path d="M7.85818 0.134328C7.58091 0.210253 7.16794 0.356262 6.94376 0.461389C6.71957 0.566515 6.3715 0.765088 6.17682 0.905256C5.98213 1.03958 5.66356 1.31992 5.46297 1.52433C5.26829 1.72875 5.02051 2.03245 4.90841 2.19014C4.79632 2.35367 4.63114 2.64568 4.54264 2.8501C4.45415 3.04867 4.31846 3.41661 4.24767 3.66775C4.14148 4.02985 4.11788 4.26347 4.11788 4.90591C4.11788 5.54835 4.14148 5.78196 4.24767 6.1499C4.31846 6.3952 4.45415 6.76314 4.54264 6.96755C4.63704 7.16613 4.81992 7.48735 4.94971 7.68008C5.0795 7.87281 5.37448 8.19987 5.59276 8.41012C5.81694 8.62038 6.08832 8.85399 6.18861 8.92408C6.3479 9.0292 6.3833 9.09345 6.3833 9.25698C6.3833 9.43219 6.3538 9.47307 6.17682 9.54899C6.01753 9.61908 5.91724 9.62492 5.73435 9.5782C5.58096 9.53731 5.43937 9.44971 5.33318 9.32122C5.24469 9.21025 4.99101 8.77223 4.76683 8.34004C4.54264 7.91369 4.25947 7.41726 4.14148 7.24205C4.02348 7.06684 3.7934 6.80402 3.63412 6.66386C3.47483 6.52369 3.18575 6.33095 2.99107 6.23751C2.73149 6.10902 2.5368 6.05646 2.25362 6.04478C2.04124 6.0331 1.73446 6.05646 1.57518 6.09734C1.40999 6.13822 1.20351 6.21415 1.10321 6.26671C1.00292 6.31343 0.808237 6.47112 0.660748 6.61129C0.51326 6.75146 0.318575 7.00844 0.235981 7.18365C0.147488 7.35886 0.0589955 7.65088 0.0353974 7.82609C0.0117992 8.01882 0.0235982 8.27579 0.0707945 8.46853C0.112091 8.64374 0.182886 8.85983 0.224182 8.95328C0.271379 9.04088 0.418867 9.23361 0.554557 9.37962C0.696145 9.53147 0.914428 9.70668 1.04422 9.77093C1.17401 9.83517 1.42769 9.92278 1.60467 9.96366C1.81706 10.0104 1.99404 10.0162 2.11793 9.98118C2.22413 9.95198 2.35392 9.87021 2.40111 9.80013C2.44831 9.72421 2.4896 9.60156 2.4896 9.51979C2.4955 9.43803 2.44241 9.3037 2.37161 9.21609C2.30082 9.11681 2.17693 9.04088 2.05894 9.01752C1.95865 9 1.82296 8.97664 1.76396 8.95912C1.71087 8.94744 1.62237 8.84231 1.57518 8.73134C1.52798 8.62038 1.43949 8.51525 1.38049 8.49773C1.3274 8.48605 1.2684 8.40428 1.2507 8.32252C1.2271 8.19987 1.2566 8.14147 1.38049 8.05386C1.50438 7.9721 1.55158 7.88449 1.55748 7.7268C1.57518 7.53991 1.60467 7.49903 1.74626 7.44646C1.88785 7.39974 1.92325 7.40558 1.95275 7.47567C1.97045 7.52239 2.02944 7.60999 2.08844 7.6684C2.15333 7.7268 2.28312 7.76768 2.43061 7.76768C2.6076 7.76768 2.68429 7.79689 2.72559 7.88449C2.76098 7.95458 2.76688 8.08306 2.73739 8.19403C2.71379 8.29332 2.70199 8.43933 2.70789 8.51525C2.71969 8.58533 2.80228 8.70798 2.90257 8.78975C3.00286 8.87151 3.12086 8.93576 3.16805 8.93576C3.21525 8.93576 3.28604 8.98832 3.31554 9.05256C3.35684 9.13433 3.35094 9.23946 3.30964 9.3913C3.27424 9.50811 3.25654 9.68332 3.28014 9.78261C3.29784 9.8819 3.38633 10.0279 3.47483 10.1155C3.56922 10.2031 3.71671 10.2907 3.8111 10.3199C3.90549 10.3433 4.06478 10.4601 4.15917 10.5711C4.28896 10.7171 4.31846 10.7813 4.25357 10.793C4.20637 10.8047 3.93499 10.7171 3.64001 10.6061C3.34504 10.4951 2.93797 10.3783 2.72559 10.3433C2.43061 10.2966 2.24182 10.3024 1.92915 10.3666C1.70497 10.4075 1.38049 10.5068 1.2212 10.5769C1.05602 10.647 0.778739 10.8514 0.595853 11.0324C0.359872 11.2661 0.230082 11.4588 0.135689 11.7099C0.0412967 11.9494 0 12.1888 0 12.4692C0 12.7554 0.0412967 12.9831 0.135689 13.2284C0.212383 13.4212 0.353972 13.684 0.454264 13.8066C0.548657 13.9351 0.76104 14.1278 0.926227 14.233C1.08551 14.3439 1.35099 14.4724 1.51618 14.5191C1.67547 14.5659 1.94095 14.6009 2.10613 14.6009C2.26542 14.6009 2.5309 14.5659 2.69609 14.5191C2.85538 14.4724 3.12086 14.3439 3.28604 14.2388C3.44533 14.1337 3.66361 13.9351 3.7698 13.8008C3.89369 13.6372 3.96449 13.4796 3.96449 13.3628C3.97039 13.2576 3.92319 13.1116 3.8642 13.0357C3.8052 12.9656 3.66361 12.8897 3.55152 12.8663C3.36274 12.8313 3.31554 12.8546 3.03236 13.1175L2.71969 13.4036C2.30672 13.2576 2.25952 13.2576 2.09434 13.3569C1.93505 13.4445 1.88195 13.4504 1.75806 13.392C1.62237 13.3277 1.60467 13.281 1.60467 13.024C1.60467 12.7729 1.58108 12.7203 1.45719 12.6444C1.35689 12.586 1.3097 12.5042 1.3097 12.3991C1.3097 12.3056 1.33919 12.2064 1.38049 12.1655C1.42769 12.1246 1.54568 12.1129 1.69907 12.1363C1.92915 12.1772 1.95865 12.1596 2.16513 11.9611C2.28312 11.8384 2.41881 11.7391 2.46601 11.7391C2.5132 11.7391 2.83178 11.8793 3.18575 12.0545C3.53382 12.2239 4.07068 12.475 4.37746 12.6035C4.68423 12.732 5.109 12.8722 5.32138 12.913C5.55736 12.9539 5.87004 12.9714 6.13552 12.9481C6.3656 12.9247 6.72547 12.8546 6.93196 12.7846C7.13254 12.7203 7.32133 12.6736 7.35672 12.6911C7.39212 12.7086 7.39802 12.8605 7.36852 13.1175C7.33902 13.3394 7.27413 13.719 7.20923 13.9585C7.15024 14.1979 7.02045 14.6067 6.92016 14.8637C6.82577 15.1207 6.63698 15.4886 6.51309 15.6814C6.3892 15.8741 6.18271 16.1311 6.05292 16.2537C5.91134 16.3881 5.70485 16.5107 5.52787 16.5633C5.35678 16.6158 5.1621 16.6334 5.0559 16.61C4.95561 16.5866 4.80812 16.5341 4.71963 16.4932C4.62524 16.4465 4.50135 16.3238 4.43645 16.2245C4.36566 16.1077 4.31846 15.9267 4.31846 15.7515C4.31846 15.5996 4.35386 15.4069 4.40106 15.3134C4.44825 15.2258 4.54854 15.0973 4.62524 15.0331C4.69603 14.963 4.86712 14.8754 4.99691 14.8345C5.19749 14.7761 5.29188 14.782 5.61636 14.8637C5.95263 14.9572 6.02343 14.9572 6.17682 14.8871C6.27121 14.8404 6.3892 14.7236 6.43639 14.6301C6.50719 14.4783 6.50129 14.4315 6.4187 14.2622C6.3538 14.1337 6.22991 14.0344 6.01753 13.9351C5.84644 13.8533 5.58686 13.7716 5.43937 13.7541C5.29188 13.7307 5.01461 13.7424 4.81992 13.7774C4.62524 13.8183 4.34796 13.9059 4.21227 13.976C4.07068 14.0461 3.8347 14.2213 3.69311 14.3673C3.54562 14.5133 3.35684 14.7761 3.26834 14.9513C3.16215 15.1733 3.10906 15.401 3.08546 15.6814C3.07366 15.9267 3.09136 16.207 3.13855 16.3822C3.18575 16.5399 3.28014 16.7794 3.35094 16.9079C3.42173 17.0363 3.60462 17.2524 3.75211 17.3868C3.89959 17.5269 4.12378 17.6905 4.24767 17.7489C4.36566 17.8073 4.58394 17.889 4.73143 17.9299C4.87892 17.965 5.1562 18 5.35088 18C5.54557 17.9942 5.85234 17.9533 6.02933 17.9066C6.20631 17.854 6.51309 17.7138 6.70777 17.5853C6.90246 17.4627 7.21513 17.2057 7.39802 17.0188C7.5809 16.8261 7.87588 16.4523 8.04697 16.1778C8.21805 15.9033 8.47174 15.401 8.61332 15.0506C8.74901 14.706 8.8611 14.3907 8.8611 14.3556C8.85521 14.3147 8.8965 14.2446 8.9496 14.2096C9.02629 14.1454 9.04989 14.1746 9.13248 14.414C9.18558 14.5659 9.25637 14.7703 9.29177 14.8637C9.32717 14.9572 9.49236 15.3134 9.66344 15.6522C9.82863 15.9909 10.0882 16.4231 10.2357 16.6158C10.3773 16.8086 10.6428 17.0947 10.8139 17.2466C10.9908 17.4043 11.333 17.6262 11.569 17.743C11.9466 17.9241 12.0823 17.965 12.4834 17.9825C12.7489 17.9942 13.097 17.9708 13.2563 17.9358C13.4214 17.9007 13.7105 17.7722 13.9052 17.6496C14.0999 17.5269 14.3536 17.2992 14.4775 17.1356C14.5955 16.9779 14.7488 16.6801 14.8196 16.4698C14.9199 16.1778 14.9435 16.0084 14.914 15.7398C14.8963 15.547 14.8609 15.3076 14.8314 15.2141C14.8019 15.1207 14.7134 14.9221 14.6309 14.7761C14.5424 14.6301 14.3595 14.4082 14.2179 14.2855C14.0822 14.157 13.8167 13.9877 13.6397 13.9117C13.3802 13.7949 13.215 13.7657 12.8138 13.7599C12.389 13.7599 12.2651 13.7774 11.9879 13.9117C11.7932 14.0052 11.6339 14.1278 11.5926 14.2154C11.5513 14.2972 11.5159 14.4082 11.5159 14.4549C11.5159 14.5016 11.5513 14.6067 11.5926 14.6885C11.628 14.7703 11.746 14.8637 11.8404 14.9046C11.982 14.9572 12.0882 14.9513 12.3713 14.8696C12.6486 14.7878 12.7784 14.782 12.9613 14.8287C13.0911 14.8579 13.2799 14.9572 13.3802 15.0506C13.4804 15.1382 13.5984 15.3193 13.6397 15.4478C13.681 15.5762 13.6987 15.7807 13.6751 15.9033C13.6574 16.026 13.5571 16.207 13.4509 16.3297C13.3271 16.4581 13.1678 16.5574 13.0203 16.5925C12.8905 16.6275 12.7017 16.6334 12.6073 16.61C12.5129 16.5925 12.3359 16.5282 12.2238 16.4698C12.1117 16.4114 11.9348 16.2771 11.8286 16.1661C11.7224 16.061 11.5159 15.7631 11.3743 15.5062C11.2268 15.2492 11.0262 14.7878 10.9259 14.4841C10.8316 14.1804 10.7136 13.7073 10.6605 13.4328C10.6133 13.1583 10.572 12.8663 10.572 12.7787V12.6152C11.3684 12.9014 11.5218 12.9247 12.1059 12.9306C12.6191 12.9306 12.8551 12.9072 13.0793 12.8254C13.2445 12.767 13.8403 12.4984 14.4067 12.2297C14.973 11.9611 15.4804 11.7391 15.5276 11.7391C15.5748 11.7391 15.7046 11.8384 15.8108 11.9611C16.0054 12.1713 16.0172 12.1772 16.3004 12.1363C16.5718 12.0896 16.5954 12.0954 16.6485 12.2356C16.6839 12.3173 16.7075 12.4049 16.7075 12.44C16.7075 12.475 16.6249 12.5685 16.5246 12.6619C16.3712 12.7962 16.3476 12.8488 16.3771 13.024C16.4007 13.17 16.3771 13.2576 16.3063 13.3335C16.2532 13.392 16.1529 13.4387 16.088 13.4387C16.0231 13.4387 15.9288 13.3978 15.8816 13.3452C15.8344 13.2927 15.7341 13.2518 15.6633 13.2576C15.5866 13.2576 15.5158 13.281 15.4981 13.316C15.4804 13.3511 15.4155 13.3744 15.3506 13.3744C15.2857 13.3744 15.1264 13.2693 14.9966 13.1408C14.8668 13.0123 14.6898 12.8897 14.6014 12.8722C14.5011 12.8488 14.3772 12.8663 14.2887 12.913C14.2061 12.9598 14.1058 13.0649 14.0586 13.1408C14.0114 13.2226 13.9937 13.3511 14.0114 13.4328C14.0291 13.5146 14.1707 13.719 14.33 13.8942C14.4834 14.0636 14.7193 14.268 14.8491 14.3381C14.9789 14.4082 15.2208 14.5016 15.3801 14.5425C15.5571 14.5892 15.8285 14.6067 16.0585 14.5892C16.2709 14.5717 16.5777 14.4958 16.737 14.4199C16.9022 14.3498 17.1736 14.1512 17.3446 13.976C17.5098 13.8066 17.7222 13.5146 17.8107 13.3335C17.8992 13.135 17.9759 12.8488 17.9936 12.6444C18.0133 12.4108 17.9877 12.1772 17.9169 11.9435C17.8638 11.7508 17.7753 11.5289 17.7222 11.4471C17.6691 11.3653 17.5098 11.1726 17.3623 11.0208C17.2149 10.8631 16.9612 10.6703 16.796 10.5886C16.6367 10.5068 16.3181 10.4075 16.088 10.3666C15.799 10.3141 15.563 10.3024 15.2916 10.3433C15.0792 10.3725 14.6839 10.4776 14.4067 10.5769C14.1294 10.6703 13.858 10.7755 13.8049 10.8105C13.7459 10.8397 13.681 10.8514 13.6574 10.8339C13.6279 10.8164 13.7164 10.6995 13.8462 10.5711C13.976 10.4426 14.1471 10.3258 14.2297 10.3082C14.3123 10.2907 14.4362 10.2206 14.507 10.1506C14.5837 10.0746 14.6662 9.92278 14.7016 9.81181C14.7429 9.67164 14.737 9.54315 14.6898 9.40298C14.6544 9.29202 14.6427 9.15185 14.6662 9.09929C14.6839 9.04088 14.7901 8.95912 14.8963 8.91823C14.9966 8.87735 15.1323 8.77807 15.1913 8.6963C15.2444 8.62038 15.2916 8.48605 15.2916 8.39844C15.2916 8.305 15.268 8.18235 15.2326 8.1181C15.1933 8.04023 15.1933 7.96236 15.2326 7.88449C15.2798 7.79104 15.3506 7.76768 15.5571 7.76768C15.7872 7.76768 15.8462 7.74432 15.9759 7.58079C16.1116 7.40558 16.147 7.3939 16.2827 7.44646C16.3948 7.48735 16.442 7.55159 16.4479 7.65088C16.4538 7.73264 16.4597 7.84361 16.4656 7.90201C16.4656 7.95458 16.5364 8.02466 16.619 8.0597C16.7311 8.10642 16.7606 8.15315 16.7547 8.27579C16.7429 8.38676 16.6839 8.46269 16.5777 8.50941C16.4676 8.56003 16.4125 8.63011 16.4125 8.71966C16.4184 8.80727 16.3653 8.87151 16.2532 8.91823C16.1647 8.95328 15.9995 9 15.8993 9.01752C15.7636 9.04088 15.6692 9.11097 15.5866 9.2453C15.5217 9.34458 15.4686 9.47891 15.4686 9.53731C15.4686 9.58988 15.5335 9.70668 15.6102 9.80013C15.6869 9.88774 15.8344 9.97534 15.9465 9.99286C16.0585 10.0104 16.2827 9.9987 16.442 9.95782C16.6072 9.92278 16.8314 9.84101 16.9435 9.78261C17.0556 9.72421 17.2797 9.54315 17.4331 9.37962C17.5983 9.20441 17.7635 8.95328 17.8284 8.77807C17.9051 8.57949 17.9464 8.32252 17.9464 8.0597C17.9464 7.79689 17.9051 7.53991 17.8343 7.34718C17.7694 7.17197 17.5924 6.89747 17.4331 6.72226C17.2443 6.51785 17.0202 6.34848 16.7665 6.22583C16.4302 6.06814 16.324 6.04478 15.8816 6.04478C15.4332 6.04478 15.3329 6.06814 14.9966 6.23167C14.7311 6.36016 14.4952 6.53537 14.2297 6.8157C14.0173 7.03764 13.7577 7.37638 13.6515 7.56327C13.5394 7.756 13.2917 8.19987 13.097 8.55613C12.9023 8.91239 12.6722 9.2745 12.5896 9.3621C12.5011 9.44971 12.3477 9.54899 12.2533 9.57236C12.153 9.60156 12.0115 9.61324 11.9289 9.59572C11.8463 9.5782 11.7342 9.51979 11.6752 9.46723C11.6162 9.41467 11.569 9.31538 11.5749 9.2453C11.5749 9.15185 11.7106 9 12.0292 8.74886C12.2769 8.54445 12.625 8.21155 12.7961 8.0013C12.9731 7.79104 13.2209 7.41142 13.3566 7.15445C13.4863 6.89747 13.6633 6.43608 13.74 6.13238C13.8167 5.82868 13.8934 5.37897 13.9111 5.13952C13.9347 4.86502 13.9111 4.5146 13.858 4.20506C13.8049 3.93056 13.7223 3.58014 13.6633 3.41661C13.6102 3.25892 13.4981 2.97859 13.4214 2.80337C13.3389 2.62816 13.1383 2.28942 12.9731 2.04997C12.802 1.81051 12.5011 1.47177 12.3005 1.29072C12.0999 1.10967 11.7283 0.841012 11.4746 0.689163C11.2209 0.543154 10.8257 0.350422 10.6015 0.268657C10.3773 0.192732 10.0292 0.0992861 9.83453 0.0642439C9.63984 0.0292017 9.22688 0 8.9201 0C8.53663 0.00584036 8.20036 0.0467229 7.85818 0.134328Z" fill="white"/>
</svg>
