<svg width="28" height="28" viewBox="0 0 28 28" fill="none" xmlns="http://www.w3.org/2000/svg">
<path d="M23.9167 18.4654C20.9983 25.3817 11.5081 27.3971 6.06835 22.0078C0.734417 16.7235 2.38577 7.14998 9.3993 4.08301" stroke="white" stroke-width="1.5" stroke-linecap="round"/>
<path d="M20.6303 14.5837C22.8326 14.5837 23.9337 14.5837 24.6448 13.5978C24.6714 13.561 24.7156 13.4948 24.7394 13.4562C25.3782 12.4219 25.0489 11.6273 24.3907 10.0381C23.7937 8.59695 22.9188 7.2875 21.8159 6.18451C20.7128 5.08152 19.4034 4.20658 17.9623 3.60964C16.373 2.95136 15.5784 2.62221 14.5442 3.26089C14.5055 3.28476 14.4394 3.32893 14.4025 3.35551C13.4167 4.06663 13.4167 5.16775 13.4167 7.37V9.83239C13.4167 12.0722 13.4167 13.1921 14.1125 13.8879C14.8083 14.5837 15.9282 14.5837 18.1679 14.5837H20.6303Z" stroke="white" stroke-width="1.5"/>
</svg>
