<svg width="18" height="18" viewBox="0 0 18 18" fill="none" xmlns="http://www.w3.org/2000/svg">
<path d="M9.75 5.25C9.75 6.90686 8.40683 8.25 6.75 8.25C5.09314 8.25 3.75 6.90686 3.75 5.25C3.75 3.59314 5.09314 2.25 6.75 2.25C8.40683 2.25 9.75 3.59314 9.75 5.25Z" fill="#A1E8FF" stroke="#A1E8FF" stroke-width="1.5"/>
<path d="M11.25 8.25C12.9068 8.25 14.25 6.90686 14.25 5.25C14.25 3.59314 12.9068 2.25 11.25 2.25" stroke="#A1E8FF" stroke-width="1.5" stroke-linecap="round" stroke-linejoin="round"/>
<path d="M8.25 10.5H5.25C3.17894 10.5 1.5 12.179 1.5 14.25C1.5 15.0785 2.17157 15.75 3 15.75H10.5C11.3285 15.75 12 15.0785 12 14.25C12 12.179 10.321 10.5 8.25 10.5Z" fill="#A1E8FF" stroke="#A1E8FF" stroke-width="1.5" stroke-linejoin="round"/>
<path d="M12.75 10.5C14.821 10.5 16.5 12.179 16.5 14.25C16.5 15.0784 15.8284 15.75 15 15.75H13.875" stroke="#A1E8FF" stroke-width="1.5" stroke-linecap="round" stroke-linejoin="round"/>
</svg>
