<svg width="28" height="28" viewBox="0 0 28 28" fill="none" xmlns="http://www.w3.org/2000/svg">
<path d="M13.9987 19.8333C12.0462 19.8333 10.3467 21.3092 9.4693 23.4864C9.05023 24.5263 9.65157 25.6667 10.4506 25.6667H17.5468C18.3458 25.6667 18.9471 24.5263 18.528 23.4864C17.6507 21.3092 15.9512 19.8333 13.9987 19.8333Z" fill="white" stroke="white" stroke-width="1.5" stroke-linecap="round"/>
<path d="M21.5846 5.83334H22.9872C24.3883 5.83334 25.0887 5.83334 25.4542 6.2736C25.8196 6.71385 25.6677 7.37466 25.3638 8.69628L24.9079 10.6786C24.2224 13.66 21.714 15.8769 18.668 16.3333" stroke="white" stroke-width="1.5" stroke-linecap="round" stroke-linejoin="round"/>
<path d="M6.41537 5.83334H5.01279C3.61177 5.83334 2.91127 5.83334 2.54581 6.2736C2.18035 6.71385 2.33231 7.37466 2.63624 8.69628L3.09209 10.6786C3.7777 13.66 6.28601 15.8769 9.33203 16.3333" stroke="white" stroke-width="1.5" stroke-linecap="round" stroke-linejoin="round"/>
<path d="M14.0013 19.8333C17.5256 19.8333 20.4938 14.3942 21.386 6.98938C21.6327 4.94152 21.7561 3.9176 21.1026 3.12546C20.4491 2.33334 19.394 2.33334 17.2836 2.33334H10.719C8.60868 2.33334 7.55352 2.33334 6.9 3.12546C6.24648 3.9176 6.36984 4.94152 6.61659 6.98938C7.5088 14.3942 10.4771 19.8333 14.0013 19.8333Z" fill="white" stroke="white" stroke-width="1.5" stroke-linecap="round"/>
</svg>
