<svg width="25" height="24" viewBox="0 0 25 24" fill="none" xmlns="http://www.w3.org/2000/svg">
<path d="M22.6641 12C22.6641 17.5228 18.1869 22 12.6641 22C7.14121 22 2.66406 17.5228 2.66406 12C2.66406 6.47715 7.14121 2 12.6641 2C18.1869 2 22.6641 6.47715 22.6641 12Z" stroke="white" stroke-width="2"/>
<path d="M15.3743 10.0611C15.2752 9.29844 14.3995 8.06622 12.8249 8.06619C10.9953 8.06616 10.2254 9.07946 10.0692 9.58611C9.82551 10.2638 9.87425 11.6571 12.0188 11.809C14.6995 11.999 15.7734 12.3154 15.6368 13.956C15.5001 15.5965 14.0058 15.951 12.8249 15.9129C11.6439 15.875 9.7117 15.3325 9.63672 13.8733M12.6375 6.99805V8.06982M12.6375 15.9031V16.998" stroke="white" stroke-width="2" stroke-linecap="round"/>
</svg>
