<svg width="19" height="18" viewBox="0 0 19 18" fill="none" xmlns="http://www.w3.org/2000/svg">
<path d="M8 5.25L7.61311 6.29554C7.1058 7.6665 6.85215 8.352 6.35209 8.8521C5.85202 9.35213 5.16653 9.60577 3.79554 10.1131L2.75 10.5L3.79554 10.8869C5.16653 11.3942 5.85202 11.6479 6.35209 12.1479C6.85215 12.648 7.1058 13.3335 7.61311 14.7044L8 15.75L8.38685 14.7044C8.89423 13.3335 9.14787 12.648 9.6479 12.1479C10.148 11.6479 10.8335 11.3942 12.2044 10.8869L13.25 10.5L12.2044 10.1131C10.8335 9.60577 10.148 9.35213 9.6479 8.8521C9.14787 8.352 8.89423 7.6665 8.38685 6.29554L8 5.25Z" stroke="#FD7A10" stroke-width="1.5" stroke-linejoin="round"/>
<path d="M14 2.25L13.8342 2.69809C13.6168 3.28565 13.5081 3.57944 13.2937 3.79375C13.0795 4.00806 12.7857 4.11677 12.1981 4.33419L11.75 4.5L12.1981 4.66581C12.7857 4.88323 13.0795 4.99194 13.2937 5.20625C13.5081 5.42056 13.6168 5.71435 13.8342 6.30191L14 6.75L14.1658 6.30191C14.3832 5.71435 14.4919 5.42056 14.7063 5.20624C14.9205 4.99194 15.2143 4.88323 15.8019 4.66581L16.25 4.5L15.8019 4.33419C15.2143 4.11677 14.9205 4.00806 14.7063 3.79375C14.4919 3.57944 14.3832 3.28565 14.1658 2.69809L14 2.25Z" stroke="#FD7A10" stroke-width="1.5" stroke-linejoin="round"/>
</svg>
