<svg width="32" height="32" viewBox="0 0 32 32" fill="none" xmlns="http://www.w3.org/2000/svg">
<circle cx="16" cy="16" r="16" fill="white"/>
<path d="M22.1801 8.07022C22.0908 8.10478 21.3322 8.42729 20.5065 8.79588C19.6809 9.16446 17.6727 10.0398 16.0437 10.754C14.4148 11.4681 12.7078 12.2168 12.2503 12.4241C11.7929 12.6315 10.1305 13.3571 8.56852 14.0482C7.00653 14.7278 5.63421 15.3728 5.52264 15.465C5.41107 15.5686 5.32182 15.7875 5.33297 15.9602C5.33297 16.1676 5.42223 16.3403 5.58959 16.444C5.72347 16.5362 6.53793 16.8241 7.39703 17.089C8.25612 17.354 9.26025 17.5958 9.62843 17.6304C10.1082 17.6765 10.4652 17.6419 10.9115 17.4807C11.2462 17.3655 11.9268 16.9969 12.4177 16.6513C12.9086 16.3058 13.9127 15.5917 14.6491 15.0733C15.3855 14.555 16.5346 13.7257 17.2152 13.2419C17.8958 12.7582 18.5875 12.2859 18.7772 12.1822C19.0227 12.0555 19.1454 12.0325 19.2235 12.1362C19.3016 12.2283 18.4648 13.1498 16.345 15.2807C13.8681 17.7916 13.366 18.356 13.366 18.6094C13.366 18.7937 13.4218 19.0471 13.4776 19.1854C13.5446 19.3351 14.002 19.7498 14.5152 20.1183C15.0173 20.4869 16.3338 21.4429 17.4384 22.2377C18.5429 23.0325 19.614 23.7466 19.8148 23.8387C20.0045 23.9309 20.3392 24 20.54 24C20.7297 24 21.0644 23.8963 21.2652 23.7696C21.4549 23.6429 21.7227 23.3665 21.8342 23.1592C21.9681 22.9403 22.102 22.3644 22.1801 21.7539C22.247 21.1895 22.4702 19.6 22.6822 18.2409C22.883 16.8817 23.095 15.4765 23.1284 15.1309C23.1731 14.7854 23.3516 13.5875 23.5301 12.4817C23.7086 11.376 23.8983 10.0514 23.9318 9.54456L23.9987 8.6231C23.3739 8.05871 23.1842 7.9896 22.8272 8.00111C22.5594 8.00111 22.2694 8.03567 22.1801 8.07022Z" fill="#220808"/>
</svg>
