<svg width="25" height="24" viewBox="0 0 25 24" fill="none" xmlns="http://www.w3.org/2000/svg">
<path d="M3.39367 15.1933L3.75891 13.1219C4.19059 10.6736 4.40643 9.44952 5.26117 8.72476C6.11592 8 7.34374 8 9.79937 8H14.8647C17.3203 8 18.5481 8 19.4029 8.72476C20.2576 9.44952 20.4734 10.6736 20.9051 13.1219L21.2704 15.1933C21.8677 18.5811 22.1664 20.275 21.2467 21.3875C20.327 22.5 18.6279 22.5 15.2299 22.5H9.43413C6.03609 22.5 4.33707 22.5 3.41736 21.3875C2.49765 20.275 2.79633 18.5811 3.39367 15.1933Z" stroke="white" stroke-width="2"/>
<path d="M7.83203 8L7.99985 5.98618C8.18761 3.73306 10.0711 2 12.332 2C14.5929 2 16.4764 3.73306 16.6642 5.98618L16.832 8" stroke="white" stroke-width="2"/>
<path d="M15.332 11C15.202 12.4131 13.8977 13.5 12.332 13.5C10.7663 13.5 9.46205 12.4131 9.33203 11" stroke="white" stroke-width="2" stroke-linecap="round"/>
</svg>
