<svg width="32" height="32" viewBox="0 0 32 32" fill="none" xmlns="http://www.w3.org/2000/svg">
<circle cx="16" cy="16" r="16" fill="white"/>
<path d="M22.71 8C23.3078 8 23.7584 8.01703 23.75 8.03809C23.7434 8.06183 23.2343 8.65015 22.6211 9.35156C22.0064 10.0547 20.9496 11.2674 20.2676 12.042C19.5901 12.8163 18.8078 13.7126 18.5254 14.0371C18.2438 14.3565 18.0211 14.6343 18.0244 14.6562C18.0328 14.6773 18.3906 15.1618 18.8242 15.7344C19.2576 16.3109 19.7835 17.0051 19.9941 17.2832C20.2047 17.5611 20.7648 18.2985 21.2363 18.9258C21.7079 19.5531 22.2978 20.3282 22.542 20.6523C22.7863 20.9767 23.2531 21.5913 23.5771 22.0205C23.9013 22.45 24.3688 23.0688 24.6172 23.4014C24.8656 23.7297 25.0674 24.0079 25.0674 24.0205C25.043 24.0329 23.8258 24.041 19.7422 24.041L18.8574 22.9004C18.3693 22.2734 17.8521 21.6039 17.7002 21.4141C17.5486 21.2204 16.9331 20.4283 16.3311 19.6494C15.4346 18.4962 15.224 18.2479 15.1777 18.29C15.1429 18.3167 14.5288 19.0109 13.8096 19.8311C13.0908 20.6507 12.4644 21.3697 12.4121 21.4307C12.3616 21.4896 12.0075 21.8899 11.6328 22.3193C11.2539 22.7488 10.7614 23.3088 10.1426 24.0371H9.11914C8.4666 24.0413 8.10059 24.0243 8.10059 23.999C8.1008 23.9777 8.36997 23.649 8.69824 23.2744C9.02666 22.8955 9.66651 22.1635 10.1211 21.6416C10.5715 21.1196 11.3885 20.1849 11.9316 19.5576C12.4703 18.9306 13.0595 18.2568 13.2324 18.0586C13.4092 17.8607 13.7083 17.5152 14.2471 16.8838L13.9229 16.458C13.7417 16.2263 13.4131 15.8018 13.1943 15.5156C12.9755 15.2294 12.6013 14.7452 12.3613 14.4336C12.1256 14.1262 11.5356 13.3637 11.0557 12.7363C10.5757 12.1091 10.029 11.4014 9.84375 11.1572C9.65854 10.9131 9.3719 10.5432 9.21191 10.3369C9.05192 10.1264 8.74042 9.72185 8.52148 9.43555C8.30255 9.15346 7.974 8.72795 7.79297 8.49219C7.61202 8.25652 7.46454 8.05004 7.46875 8.0332V8.0293C7.47571 8.01253 8.70597 8 12.9209 8L13.1191 8.26074C13.2244 8.40807 13.704 9.02703 14.1797 9.6416C14.6597 10.2563 15.4894 11.3222 16.0283 12.0127C16.5595 12.6986 17.0118 13.2596 17.0342 13.2627C17.0552 13.2627 17.388 12.8962 17.7754 12.4541C18.1628 12.0078 18.9417 11.1112 19.5059 10.4629C20.07 9.81453 20.7857 8.99357 21.6572 8H22.71ZM12.3096 9.72656C11.1057 9.72656 10.7544 9.73451 10.752 9.74707C10.752 9.7597 10.8824 9.93245 11.0381 10.1387C11.1981 10.3407 11.4929 10.724 11.6992 10.9893C11.9013 11.2544 12.2253 11.6797 12.4189 11.9365C12.6126 12.1934 12.9755 12.6651 13.2197 12.9893C13.4681 13.3134 13.842 13.8062 14.0566 14.084C14.2672 14.3619 14.7221 14.9597 15.0674 15.4102C15.4126 15.8607 15.8758 16.4673 16.0947 16.7578C16.3136 17.0483 16.6888 17.5401 16.9287 17.8516C17.1687 18.1631 17.5519 18.6688 17.7793 18.9678C18.0109 19.2667 18.3981 19.7804 18.6465 20.1045C18.8949 20.4286 19.2906 20.9463 19.5264 21.2578C19.7579 21.5694 20.0318 21.9235 20.1328 22.0498L20.3096 22.2725C21.4841 22.2725 21.8252 22.26 21.8252 22.2432C21.8285 22.2211 21.6685 22.0022 21.4795 21.7461C21.2858 21.4892 20.9742 21.0849 20.7891 20.8408C20.6037 20.5964 20.2079 20.0791 19.9092 19.6836C19.6102 19.2878 19.0465 18.5504 18.6592 18.041C18.2676 17.5316 17.7664 16.8709 17.5391 16.5762C17.3159 16.2772 16.9494 15.8016 16.7305 15.5195C16.5115 15.2332 16.1407 14.7487 15.9092 14.4414C15.6774 14.138 15.0674 13.3344 14.5498 12.6611C14.0362 11.9833 13.4295 11.1873 13.2021 10.8926C12.9791 10.5938 12.6846 10.2108 12.5498 10.0381L12.3096 9.72656Z" fill="#220808"/>
</svg>
