<svg width="32" height="32" viewBox="0 0 32 32" fill="none" xmlns="http://www.w3.org/2000/svg">
<path d="M3.2 3.2H6.4V0H25.6V3.2H28.8V6.4H32V25.6H28.8V28.8H25.6V32H6.4V28.8H3.2V25.6H0V6.4H3.2V3.2Z" fill="white"/>
<path d="M11.8664 18.6525C10.7885 19.2944 7.96223 20.6049 9.68361 22.2449C10.5245 23.046 11.461 23.6189 12.6384 23.6189H19.3571C20.5345 23.6189 21.4711 23.046 22.3119 22.2449C24.0333 20.6049 21.2071 19.2944 20.1291 18.6525C17.6014 17.1474 14.3941 17.1474 11.8664 18.6525Z" fill="black"/>
<path d="M19.4275 11.8097C19.4275 13.7032 17.8924 15.2382 15.9989 15.2382C14.1053 15.2382 12.5703 13.7032 12.5703 11.8097C12.5703 9.91613 14.1053 8.3811 15.9989 8.3811C17.8924 8.3811 19.4275 9.91613 19.4275 11.8097Z" fill="black"/>
</svg>
