<svg width="82" height="83" viewBox="0 0 82 83" fill="none" xmlns="http://www.w3.org/2000/svg">
<rect y="0.500031" width="82" height="82" rx="41" fill="#220808" fill-opacity="0.05"/>
<path d="M36.0009 39.2093L36.363 38.8472C39.8257 35.3843 45.4401 35.3843 48.9028 38.8472C52.3657 42.3099 52.3657 47.9243 48.9028 51.387L43.887 56.4029C40.4242 59.8658 34.8099 59.8658 31.3471 56.4029C27.8843 52.9401 27.8843 47.3258 31.3471 43.8631L32.1597 43.0505" stroke="black" stroke-width="4" stroke-linecap="round"/>
<path d="M49.8403 39.9495L50.6528 39.137C54.1157 35.6742 54.1157 30.0599 50.6528 26.5971C47.1901 23.1343 41.5757 23.1343 38.113 26.5971L33.0971 31.6131C29.6343 35.0758 29.6343 40.6901 33.0971 44.1529C36.5599 47.6158 42.1742 47.6158 45.637 44.1529L45.999 43.7908" stroke="black" stroke-width="4" stroke-linecap="round"/>
</svg>
